#!OML:ASF F:\VICON\USERDATA\INSTALL\rory3\rory3.ASF
:FULLY-SPECIFIED
:DEGREES
37
root -0.2256199150130237 18.5122318056814 7.501255258488366 5.396847937264863 -2.972340658761304 1.900423413335694
lfemur 11.529492591134144 -6.4138231864209105 -28.975280097539684
ltibia 44.61969888393776
lfoot 26.69094502466145 -20.865460589903854
ltoes -10.251467420768893
rfemur -36.13130928608365 0.6346471109461889 25.0771748138333
rtibia 24.81705115576387
rfoot 7.033735361441355 -1.2749018443653144
rtoes -15.365556397378425
lowerback 14.159142963647843 -1.6238057625608104 -2.0077056120360206
upperback -1.0537040706216754 -2.4163918426120445 0.9697142904464724
thorax -8.954195756226518 -1.033149383758794 2.821096094408051
lowerneck -20.294696217643455 -3.279571057118032 -2.362741174828899
upperneck 13.61946528174287 -4.323243751760237 2.8305592081119224
head 7.66235116719289 -1.879892978750392 0.7848961069201545
lclavicle -8.083998643979938e-16 -6.919168268243268e-16
lhumerus -38.12616230887296 -15.377714504873241 94.04176882115426
lradius 116.2675636351861
lwrist 36.7591025656417
lhand -24.551446410827864 0.9068259602704085
lfingers 7.125020000000057
lthumb 1.9443239683177767 30.822268751539298
rclavicle -8.083998643979938e-16 -6.919168268243268e-16
rhumerus -64.79348757428681 5.237125569352454 -96.03985776552024
rradius 113.86633419203099
rwrist -15.83972935615287
rhand -19.737859851685872 33.42222831539859
rfingers 7.125020000000057
rthumb 6.590928950624246 12.741132961527255
38
root -0.23303138438327903 18.3332882970938 8.835012944358866 4.748987765743177 -3.38508963929326 1.7053832185043336
lfemur 10.08735616882586 -5.321927586516126 -28.003696728615243
ltibia 52.17930157767582
lfoot 25.510663559198267 -20.45975153791061
ltoes -8.198129421761989
rfemur -35.27266143269665 0.48264138132366474 25.876066485066726
rtibia 27.63967503098427
rfoot 5.400006314722962 -0.4271158074962971
rtoes -9.905900304909675
lowerback 14.73028393496923 -1.40814609676241 -1.7618529443946136
upperback -0.8175873822750919 -2.0900541670864476 0.9827448457128433
thorax -8.98866368055239 -0.8895200640241744 2.6424004638246896
lowerneck -20.1368007666623 -3.317045921930855 -2.43518933212044
upperneck 13.522783944135673 -4.3290196499637945 2.7022094553069747
head 7.596807016156292 -1.904812074434935 0.7529953979206243
lclavicle -7.663798225170721e-16 -6.593805641235196e-16
lhumerus -39.1083301652513 -14.889533637910212 94.56794152083246
lradius 115.10357132691861
lwrist 37.00096123608837
lhand -24.732689048072487 0.2722100524242599
lfingers 7.125020000000057
lthumb 1.769308444916028 30.188285972733446
rclavicle -7.663798225170721e-16 -6.593805641235196e-16
rhumerus -63.542459006053505 5.176173780689625 -96.05151478856268
rradius 113.24492710786856
rwrist -16.23947826920894
rhand -19.836367975084457 33.07595636407488
rfingers 7.125020000000057
rthumb 6.495858404641433 12.689315373721824
39
root -0.24989896299353254 18.11129938389109 9.701384556667284 3.9861345179080128 -4.002752532653874 1.2086846662071014
lfemur 7.572663843708373 -3.6275292272958746 -26.507477364654516
ltibia 60.42893932324528
lfoot 24.332473083209898 -19.601764727114517
ltoes -6.026142483105465
rfemur -34.81028005639035 0.6968519842078313 26.855552075606607
rtibia 32.49942346403223
rfoot 2.5920950015273454 0.3507495961190612
rtoes -3.4290922709151817
lowerback 15.30325279296224 -1.1618119830805806 -1.4343485926323354
upperback -0.6340848810206999 -1.6890448497563582 1.0792885101611014
thorax -9.153229380745415 -0.7129870262018984 2.3959790054307124
lowerneck -20.033249945813605 -3.3662814345392884 -2.4618009920308297
upperneck 13.36717823926804 -4.365958054589893 2.49437490129396
head 7.516730124959745 -1.9433237349388686 0.6867376080710574
lclavicle -1.1503063482123298e-15 -9.566560073526096e-16
lhumerus -40.587902696421956 -14.571682953035365 95.08996081447128
lradius 113.30235478586101
lwrist 36.95878088318797
lhand -24.9656712799807 -0.5960746074546321
lfingers 7.125020000000056
lthumb 1.5443186334724037 29.31890600524661
rclavicle -1.1503063482123298e-15 -9.566560073526096e-16
rhumerus -62.25598161939475 5.117925902758158 -96.52449894936817
rradius 112.11421368229267
rwrist -16.87642944241197
rhand -20.00957639564587 32.82336939158144
rfingers 7.125020000000056
rthumb 6.328717115494163 12.530937376820374
40
root -0.2406607714112603 17.867141436647977 11.064056544322773 3.3425669243180915 -4.629385889772726 0.45758581753593175
lfemur 4.793498632911906 -1.3526409995798065 -24.04080851045512
ltibia 70.0281546410768
lfoot 23.25297255261061 -18.118898084412393
ltoes -4.107903036563061
rfemur -33.77185170623847 1.6222043191839668 28.23707005840281
rtibia 39.18789686871517
rfoot -0.7873483199969249 0.6625142311625307
rtoes 3.4234652464999744
lowerback 16.044769719547826 -0.8475161753338941 -0.768035119206846
upperback -0.4437725217636017 -1.1325641935380935 1.3263853559758882
thorax -9.339045713081722 -0.47213751929945336 2.175565182633373
lowerneck -19.944035045384137 -3.355591430276062 -2.418131849351506
upperneck 13.463044215645262 -4.320823875816101 2.273945422436652
head 7.523214106300109 -1.9477806470427224 0.6101509872523612
lclavicle -9.862108091744304e-16 -8.29596317086543e-16
lhumerus -41.6503587156609 -13.89563004384723 95.75809899250174
lradius 112.37644838476481
lwrist 37.208256935348274
lhand -25.113872718932964 -0.834531166587297
lfingers 7.125020000000057
lthumb 1.4012186810356895 29.08030726577274
rclavicle -9.862108091744304e-16 -8.29596317086543e-16
rhumerus -60.19541610640836 5.792794521472565 -96.85094187411295
rradius 111.87230217659172
rwrist -17.166563412824836
rhand -20.149463626585877 32.922589910402756
rfingers 7.125020000000057
rthumb 6.193755173217455 12.382911257194998
